<mxfile host="65bd71144e">
    <diagram id="Dq91p7MvKH8U86WS7O9I" name="Page-1">
        <mxGraphModel dx="276" dy="706" grid="1" gridSize="10" guides="1" tooltips="1" connect="1" arrows="1" fold="1" page="1" pageScale="1" pageWidth="850" pageHeight="1100" math="0" shadow="0">
            <root>
                <mxCell id="0"/>
                <mxCell id="1" parent="0"/>
                <mxCell id="2" value="&lt;ol id=&quot;GDVVFLNMRVJG4ZB8H361&quot; class=&quot;decimal shortanswer&quot; style=&quot;box-sizing: border-box; line-height: 1.8; color: rgb(87, 87, 87); padding: 0px 0px 0px 40px; clear: left; margin: 0px 0px 11px; list-style-type: decimal; font-size: 16px; font-style: normal; font-weight: 400; letter-spacing: normal; text-indent: 0px; text-transform: none; word-spacing: 0px; background-color: rgb(255, 255, 255);&quot;&gt;&lt;li id=&quot;SFNLYYZCLS7VUSL5X587&quot; style=&quot;box-sizing: border-box ; font-family: , &amp;quot;cambria&amp;quot; , &amp;quot;times new roman&amp;quot; , &amp;quot;times&amp;quot; , serif ; line-height: 1.6 ; color: rgb(87 , 87 , 87) ; margin: 0px 0px 10px ; padding: 0px ; list-style: decimal&quot;&gt;&lt;p id=&quot;DTXCUT61GJ3G6CBM4619&quot; style=&quot;box-sizing: border-box ; font-family: , &amp;quot;cambria&amp;quot; , &amp;quot;times new roman&amp;quot; , &amp;quot;times&amp;quot; , serif ; line-height: 1.6 ; color: rgb(87 , 87 , 87) ; margin: 0px ; padding: 0px&quot;&gt;In&lt;span&gt;&amp;nbsp;&lt;/span&gt;&lt;a style=&quot;box-sizing: border-box ; color: rgb(0 , 129 , 188) ; text-decoration: none ; background-color: transparent ; overflow-wrap: break-word&quot;&gt;Chapter 2&lt;/a&gt;, you learned that in many programming languages you can generate a random number between 1 and a limiting value named&lt;span&gt;&amp;nbsp;&lt;/span&gt;&lt;span class=&quot;monofont&quot; style=&quot;box-sizing: border-box ; font-family: &amp;quot;andale mono&amp;quot; , &amp;quot;courier new&amp;quot; , &amp;quot;courier&amp;quot; ; font-size: 15.36px&quot;&gt;LIMIT&lt;/span&gt;&lt;span&gt;&amp;nbsp;&lt;/span&gt;by using a statement similar to&lt;span&gt;&amp;nbsp;&lt;/span&gt;&lt;span class=&quot;monofont&quot; style=&quot;box-sizing: border-box ; font-family: &amp;quot;andale mono&amp;quot; , &amp;quot;courier new&amp;quot; , &amp;quot;courier&amp;quot; ; font-size: 15.36px&quot;&gt;randomNumber = random(LIMIT)&lt;/span&gt;. In&lt;span&gt;&amp;nbsp;&lt;/span&gt;&lt;a style=&quot;box-sizing: border-box ; color: rgb(0 , 129 , 188) ; text-decoration: none ; background-color: transparent ; overflow-wrap: break-word&quot;&gt;Chapters 4&lt;/a&gt;&lt;span&gt;&amp;nbsp;&lt;/span&gt;and&lt;span&gt;&amp;nbsp;&lt;/span&gt;&lt;a style=&quot;box-sizing: border-box ; color: rgb(0 , 129 , 188) ; text-decoration: none ; background-color: transparent ; overflow-wrap: break-word&quot;&gt;5&lt;/a&gt;, you created and fine-tuned the logic for a guessing game in which the application generates a random number and the player tries to guess it. As written, the game should work as long as the player enters numeric guesses. However, if the player enters a letter or other nonnumeric character, the game throws an automatically generated exception. Improve the game by handling any exception so that the user is informed of the error and allowed to enter data again.&lt;/p&gt;&lt;/li&gt;&lt;/ol&gt;" style="text;whiteSpace=wrap;html=1;" vertex="1" parent="1">
                    <mxGeometry x="120" y="160" width="550" height="310" as="geometry"/>
                </mxCell>
            </root>
        </mxGraphModel>
    </diagram>
</mxfile>